<svg xmlns="http://www.w3.org/2000/svg" id="Layer_1" data-name="Layer 1" viewBox="0 0 512 200.47"><defs><style>.cls-1{fill:none;stroke:#ed2024;stroke-miterlimit:10;stroke-width:1.03px;}</style></defs><path class="cls-1" d="M106.72,107.3q0-40.11,0-80.22c0-2.89,0-2.9,2.94-2.9,15.25,0,30.5-.06,45.75.05a49.9,49.9,0,0,1,10,1.07c10.53,2.27,16.43,8.59,18.13,19.29a67.12,67.12,0,0,1,.93,10c.07,21.29.15,42.58-.1,63.86A46.42,46.42,0,0,1,182,131.56c-2.85,9-9.71,13.82-18.82,14.55-9.5.77-19.09.57-28.65.71-4.84.07-3.9.22-3.91,3.84,0,12.48-.06,25,0,37.42,0,2.07-.58,2.7-2.64,2.66q-9.42-.18-18.84,0c-2,0-2.52-.58-2.52-2.55Q106.77,147.75,106.72,107.3Zm53.42-21.89v-32c0-6.2-2.46-8.77-8.59-8.9-4-.08-8.07-.06-12.11,0-6.37.07-8.81,2.53-8.81,8.86q0,25.08,0,50.17c0,5.08,0,10.16,0,15.23.06,4.33,1.87,6.78,6.1,7.15a91.26,91.26,0,0,0,15.85.24c6-.51,7.53-2.8,7.54-8.9Z"></path><path class="cls-1" d="M198.21,107.29V27.08c0-2.89,0-2.9,3-2.9,15.33,0,30.65-.08,46,.06A54.28,54.28,0,0,1,258,25.57c8.52,1.85,14,7.18,16.12,15.59a54.88,54.88,0,0,1,1.81,12.78q.27,31.69,0,63.41A51.18,51.18,0,0,1,274,130.1c-2.63,9.75-9.52,15.18-19.33,16-9.43.8-18.94.57-28.42.72-5.07.08-4.05,0-4.06,4.1,0,12.39-.07,24.79,0,37.19,0,2.14-.67,2.65-2.67,2.61-6.21-.1-12.41-.13-18.61,0-2.2,0-2.75-.66-2.74-2.79Q198.28,147.62,198.21,107.29Zm23.94-21.94c0,11.13,0,22.25,0,33.38,0,4.34,1.78,6.78,6,7.15a93.28,93.28,0,0,0,15.85.25c5.92-.5,7.59-2.89,7.6-8.91q0-19.15,0-38.31c0-8.66,0-17.32,0-26,0-5.16-1.81-7.74-6.86-8.2a92.21,92.21,0,0,0-16.11,0c-4.81.42-6.51,2.85-6.52,7.7Q222.12,68.89,222.15,85.35Z"></path><path class="cls-1" d="M405.21,99.14c0,15.08,0,30.17,0,45.25,0,1.81-.47,2.49-2.37,2.48-16.82-.1-33.64,0-50.45-.28a35.31,35.31,0,0,1-11.09-2.23c-8.37-3-12-9.9-13.39-18.14-1.82-10.52-.91-21.15-.82-31.73a50,50,0,0,1,2-12.52c2.59-9.39,9.29-14.6,18.71-15.54,8-.8,16.09-.51,24.13-.67,2.17,0,4.34,0,6.51.07,1.41,0,2-.46,2-1.94-.06-3.8.05-7.61-.05-11.42-.11-4.68-2.45-7.35-7.12-7.51-9.32-.32-18.66-.34-28-.46-3,0-3,0-3-2.89,0-5.08,0-10.16,0-15.24,0-1.6.37-2.23,2.11-2.22,10.84.07,21.68-.08,32.51.11a47.37,47.37,0,0,1,10.38,1.44c9.33,2.29,14.62,8.63,16.5,17.79a68.55,68.55,0,0,1,1.37,12.85c.17,14.27.07,28.53.07,42.8Zm-24.35,7.31c0-4.33.05-8.66,0-13s-2.42-7.08-6.84-7.25c-5.21-.2-10.44-.22-15.64,0-4.52.2-6.95,2.93-7,7.41q-.09,12.66,0,25.3c0,4.55,2.36,7.19,6.93,7.4,5.2.23,10.43.27,15.62,0,4.78-.24,6.87-2.75,6.92-7.57C380.89,114.66,380.86,110.56,380.86,106.45Z"></path><path class="cls-1" d="M418.38,85.27v-58c0-3,0-3.06,3.08-3.06,15.32,0,30.65-.06,46,.05a55.37,55.37,0,0,1,9.77,1c10.21,1.92,16.11,8.34,18.07,18.32a68.86,68.86,0,0,1,1.38,12.87c.12,29.21,0,58.41.11,87.62,0,2.37-.78,2.87-2.95,2.82-6.13-.12-12.26,0-18.39,0-3.09,0-3.1,0-3.1-3.05V55.28c0-8.14-2.06-10.43-10.21-10.69-4.32-.14-8.66.08-13,.36-3.82.26-5.76,2.27-6.27,6.07a33.07,33.07,0,0,0-.33,4.45q0,44,0,88.07c0,3.29,0,3.3-3.31,3.3-6,0-12-.09-17.94,0-2.24.05-2.95-.61-2.95-2.91C418.42,124.41,418.38,104.84,418.38,85.27Z"></path><path class="cls-1" d="M61,126.79c-2.31,2.44-4.28,4.54-6.27,6.63-3.54,3.74-7.18,7.4-10.6,11.26a5.35,5.35,0,0,1-5.06,2c-8.55-1-16.27-3.61-20-12.13a39,39,0,0,1-3.24-12.66c-.61-8.48-.65-17-.48-25.52a62.5,62.5,0,0,1,1.79-13.25c2.37-9.88,9-15.67,19-16.7,8-.83,16.09-.52,24.14-.68,2.24,0,4.49,0,6.73.06,1.25,0,1.72-.48,1.7-1.72-.05-4.26.06-8.52-.08-12.78-.11-3.66-2.58-6-6.54-6.38-2.67-.24-5.36-.4-8-.43-7,0-13.91-.07-20.86,0-1.76,0-2.34-.51-2.31-2.29.09-5.3.07-10.61,0-15.91,0-1.66.51-2.19,2.18-2.18,10.69.07,21.39-.08,32.08.11a48.78,48.78,0,0,1,10.6,1.47c10.08,2.46,15.15,9.55,16.79,19.33a74.25,74.25,0,0,1,1,12c.1,28.91.08,57.83.1,86.74,0,3,0,3-2.92,3-6.13,0-12.27-.1-18.39,0-2.35.06-2.88-.77-2.87-3,.09-15.61,0-31.22,0-46.84a39.13,39.13,0,0,0-.29-4.46c-.45-3.94-2.32-6.14-6.24-6.34a153.18,153.18,0,0,0-16.32,0c-4.53.25-6.77,2.92-6.85,7.83q-.21,12.23,0,24.43c.09,5.18,2.28,7.4,7.53,7.85,3.71.31,7.45.29,11.18.4C59.08,126.81,59.8,126.79,61,126.79Z"></path><path class="cls-1" d="M313.72,41.88V143.69c0,3.14,0,3.15-3.22,3.15-6.2,0-12.4-.05-18.6,0-1.84,0-2.64-.38-2.63-2.46q.11-36,.05-71.91a12,12,0,0,1,3.41-8.71c6.57-6.85,13.08-13.75,19.61-20.62C312.68,42.81,313.06,42.5,313.72,41.88Z"></path><path class="cls-1" d="M289.44,44.36c-.06-.89-.12-1.45-.12-2,0-11.12,0-22.23,0-33.34,0-1.83.5-2.47,2.39-2.44q9.84.13,19.7,0c1.89,0,2.19.68,2.43,2.43,1,7-1.23,12.28-6.58,17-5.83,5.2-10.87,11.27-16.27,17C290.56,43.41,290.11,43.76,289.44,44.36Z"></path></svg>